NotoSansCypriot-Regular.ufo
<glyph name="u10801" format="2">
  <advance width="796"/>
  <unicode hex="10801"/>
  <note>
u10801
</note>
  <outline>
    <contour>
      <point x="451" y="386" type="line"/>
      <point x="482" y="392"/>
      <point x="568" y="438"/>
      <point x="601" y="465" type="curve" smooth="yes"/>
      <point x="728" y="567" type="line"/>
      <point x="680" y="627" type="line"/>
      <point x="514" y="493" type="line" smooth="yes"/>
      <point x="491" y="474"/>
      <point x="446" y="430"/>
      <point x="430" y="409" type="curve"/>
      <point x="426" y="411" type="line"/>
      <point x="432" y="428"/>
      <point x="437" y="481"/>
      <point x="437" y="520" type="curve" smooth="yes"/>
      <point x="437" y="714" type="line"/>
      <point x="359" y="714" type="line"/>
      <point x="359" y="520" type="line" smooth="yes"/>
      <point x="359" y="475"/>
      <point x="363" y="428"/>
      <point x="369" y="411" type="curve"/>
      <point x="365" y="409" type="line"/>
      <point x="352" y="427"/>
      <point x="309" y="471"/>
      <point x="282" y="493" type="curve" smooth="yes"/>
      <point x="115" y="627" type="line"/>
      <point x="67" y="567" type="line"/>
      <point x="247" y="423" type="line" smooth="yes"/>
      <point x="283" y="395"/>
      <point x="320" y="377"/>
      <point x="359" y="369" type="curve"/>
      <point x="359" y="365" type="line"/>
      <point x="317" y="353"/>
      <point x="272" y="331"/>
      <point x="247" y="310" type="curve" smooth="yes"/>
      <point x="70" y="167" type="line"/>
      <point x="115" y="105" type="line"/>
      <point x="282" y="241" type="line"/>
      <point x="310" y="263"/>
      <point x="352" y="304"/>
      <point x="365" y="324" type="curve"/>
      <point x="369" y="322" type="line"/>
      <point x="362" y="303"/>
      <point x="359" y="266"/>
      <point x="359" y="213" type="curve" smooth="yes"/>
      <point x="359" y="0" type="line"/>
      <point x="437" y="0" type="line"/>
      <point x="437" y="213" type="line" smooth="yes"/>
      <point x="437" y="251"/>
      <point x="432" y="306"/>
      <point x="426" y="322" type="curve"/>
      <point x="430" y="324" type="line"/>
      <point x="446" y="301"/>
      <point x="487" y="263"/>
      <point x="514" y="241" type="curve"/>
      <point x="680" y="105" type="line"/>
      <point x="725" y="167" type="line"/>
      <point x="601" y="268" type="line" smooth="yes"/>
      <point x="566" y="297"/>
      <point x="483" y="341"/>
      <point x="450" y="349" type="curve"/>
      <point x="450" y="353" type="line"/>
      <point x="506" y="340"/>
      <point x="566" y="334"/>
      <point x="629" y="334" type="curve" smooth="yes"/>
      <point x="716" y="334" type="line"/>
      <point x="716" y="403" type="line"/>
      <point x="629" y="403" type="line" smooth="yes"/>
      <point x="564" y="403"/>
      <point x="505" y="396"/>
      <point x="451" y="381" type="curve"/>
    </contour>
  </outline>
</glyph>
<glyph name="u10802" format="2">
  <advance width="697"/>
  <unicode hex="10802"/>
  <note>
u10802
</note>
  <outline>
    <contour>
      <point x="67" y="471" type="line"/>
      <point x="288" y="254" type="line"/>
      <point x="72" y="45" type="line"/>
      <point x="126" y="-10" type="line"/>
      <point x="349" y="209" type="line"/>
      <point x="574" y="-10" type="line"/>
      <point x="628" y="44" type="line"/>
      <point x="411" y="254" type="line"/>
      <point x="629" y="470" type="line"/>
      <point x="577" y="523" type="line"/>
      <point x="445" y="395" type="line" smooth="yes"/>
      <point x="421" y="372"/>
      <point x="399" y="343"/>
      <point x="380" y="310" type="curve"/>
      <point x="376" y="310" type="line"/>
      <point x="384" y="364"/>
      <point x="388" y="427"/>
      <point x="388" y="498" type="curve" smooth="yes"/>
      <point x="388" y="714" type="line"/>
      <point x="310" y="714" type="line"/>
      <point x="310" y="498" type="line" smooth="yes"/>
      <point x="310" y="430"/>
      <point x="314" y="367"/>
      <point x="322" y="310" type="curve"/>
      <point x="318" y="310" type="line"/>
      <point x="303" y="338"/>
      <point x="281" y="366"/>
      <point x="252" y="395" type="curve" smooth="yes"/>
      <point x="120" y="523" type="line"/>
    </contour>
  </outline>
</glyph>
<glyph name="u10803" format="2">
  <advance width="753"/>
  <unicode hex="10803"/>
  <note>
u10803
</note>
  <outline>
    <contour>
      <point x="409" y="369" type="line"/>
      <point x="674" y="672" type="line"/>
      <point x="614" y="725" type="line"/>
      <point x="374" y="450" type="line"/>
      <point x="140" y="726" type="line"/>
      <point x="79" y="673" type="line"/>
      <point x="345" y="369" type="line"/>
    </contour>
    <contour>
      <point x="374" y="170" type="line"/>
      <point x="140" y="447" type="line"/>
      <point x="79" y="394" type="line"/>
      <point x="363" y="69" type="line"/>
      <point x="140" y="69" type="line"/>
      <point x="140" y="0" type="line"/>
      <point x="613" y="0" type="line"/>
      <point x="613" y="69" type="line"/>
      <point x="392" y="69" type="line"/>
      <point x="674" y="393" type="line"/>
      <point x="614" y="446" type="line"/>
    </contour>
  </outline>
</glyph>
<glyph name="u10804" format="2">
  <advance width="849"/>
  <unicode hex="10804"/>
  <note>
u10804
</note>
  <outline>
    <contour>
      <point x="460" y="0" type="line"/>
      <point x="460" y="461" type="line"/>
      <point x="624" y="619" type="line"/>
      <point x="761" y="482" type="line"/>
      <point x="815" y="534" type="line"/>
      <point x="632" y="714" type="line"/>
      <point x="608" y="714" type="line"/>
      <point x="424" y="531" type="line"/>
      <point x="241" y="714" type="line"/>
      <point x="216" y="714" type="line"/>
      <point x="34" y="534" type="line"/>
      <point x="88" y="482" type="line"/>
      <point x="226" y="620" type="line"/>
      <point x="382" y="464" type="line"/>
      <point x="382" y="0" type="line"/>
    </contour>
  </outline>
</glyph>
<glyph name="u10805" format="2">
  <advance width="579"/>
  <unicode hex="10805"/>
  <note>
u10805
</note>
  <outline>
    <contour>
      <point x="309" y="0" type="line"/>
      <point x="440" y="145"/>
      <point x="512" y="298"/>
      <point x="512" y="451" type="curve" smooth="yes"/>
      <point x="512" y="625"/>
      <point x="430" y="727"/>
      <point x="290" y="727" type="curve" smooth="yes"/>
      <point x="141" y="727"/>
      <point x="67" y="615"/>
      <point x="67" y="451" type="curve" smooth="yes"/>
      <point x="67" y="297"/>
      <point x="139" y="144"/>
      <point x="270" y="0" type="curve"/>
    </contour>
    <contour>
      <point x="145" y="451" type="curve" smooth="yes"/>
      <point x="145" y="582"/>
      <point x="196" y="655"/>
      <point x="290" y="655" type="curve" smooth="yes"/>
      <point x="384" y="655"/>
      <point x="435" y="584"/>
      <point x="435" y="451" type="curve" smooth="yes"/>
      <point x="435" y="319"/>
      <point x="383" y="189"/>
      <point x="290" y="82" type="curve"/>
      <point x="198" y="188"/>
      <point x="145" y="317"/>
    </contour>
  </outline>
</glyph>
<glyph name="u10808" format="2">
  <advance width="986"/>
  <unicode hex="10808"/>
  <note>
u10808
</note>
  <outline>
    <contour>
      <point x="726" y="238" type="line"/>
      <point x="739" y="247"/>
      <point x="760" y="269"/>
      <point x="790" y="304" type="curve" smooth="yes"/>
      <point x="953" y="495" type="line"/>
      <point x="897" y="544" type="line"/>
      <point x="709" y="318" type="line"/>
      <point x="522" y="544" type="line"/>
      <point x="482" y="544" type="line"/>
      <point x="286" y="310" type="line"/>
      <point x="93" y="544" type="line"/>
      <point x="34" y="495" type="line"/>
      <point x="251" y="226" type="line"/>
      <point x="307" y="226" type="line"/>
      <point x="500" y="449" type="line"/>
      <point x="618" y="303" type="line" smooth="yes"/>
      <point x="642" y="273"/>
      <point x="663" y="251"/>
      <point x="680" y="238" type="curve"/>
      <point x="678" y="233" type="line"/>
      <point x="647" y="236"/>
      <point x="613" y="238"/>
      <point x="574" y="238" type="curve" smooth="yes"/>
      <point x="510" y="238" type="line"/>
      <point x="510" y="168" type="line"/>
      <point x="890" y="168" type="line"/>
      <point x="890" y="238" type="line"/>
      <point x="838" y="238" type="line" smooth="yes"/>
      <point x="792" y="238"/>
      <point x="756" y="236"/>
      <point x="729" y="233" type="curve"/>
    </contour>
  </outline>
</glyph>
<glyph name="u1080B" format="2">
  <advance width="622"/>
  <unicode hex="1080B"/>
  <note>
u1080B
</note>
  <outline>
    <contour>
      <point x="87" y="40" type="line"/>
      <point x="146" y="-10" type="line"/>
      <point x="295" y="187" type="line"/>
      <point x="456" y="64" type="line"/>
      <point x="503" y="126" type="line"/>
      <point x="341" y="247" type="line"/>
      <point x="497" y="453" type="line" smooth="yes"/>
      <point x="520" y="484"/>
      <point x="532" y="512"/>
      <point x="532" y="540" type="curve" smooth="yes"/>
      <point x="532" y="576"/>
      <point x="511" y="611"/>
      <point x="469" y="644" type="curve" smooth="yes"/>
      <point x="360" y="728" type="line"/>
      <point x="312" y="666" type="line"/>
      <point x="419" y="585" type="line" smooth="yes"/>
      <point x="441" y="568"/>
      <point x="452" y="551"/>
      <point x="452" y="533" type="curve" smooth="yes"/>
      <point x="452" y="520"/>
      <point x="446" y="506"/>
      <point x="435" y="492" type="curve" smooth="yes"/>
      <point x="397" y="442" type="line"/>
      <point x="233" y="570" type="line"/>
      <point x="187" y="509" type="line"/>
      <point x="350" y="384" type="line"/>
      <point x="282" y="293" type="line"/>
      <point x="114" y="420" type="line"/>
      <point x="67" y="358" type="line"/>
      <point x="237" y="233" type="line"/>
    </contour>
  </outline>
</glyph>
<glyph name="u1080C" format="2">
  <advance width="693"/>
  <unicode hex="1080C"/>
  <note>
u1080C
</note>
  <outline>
    <contour>
      <point x="444" y="69" type="line"/>
      <point x="341" y="69" type="line"/>
      <point x="341" y="358" type="line"/>
      <point x="503" y="513" type="line"/>
      <point x="605" y="412" type="line"/>
      <point x="659" y="464" type="line"/>
      <point x="511" y="608" type="line"/>
      <point x="487" y="608" type="line"/>
      <point x="303" y="425" type="line"/>
      <point x="121" y="607" type="line"/>
      <point x="67" y="552" type="line"/>
      <point x="263" y="355" type="line"/>
      <point x="263" y="69" type="line"/>
      <point x="158" y="69" type="line"/>
      <point x="158" y="0" type="line"/>
      <point x="444" y="0" type="line"/>
    </contour>
    <contour>
      <point x="444" y="714" type="line"/>
      <point x="158" y="714" type="line"/>
      <point x="158" y="645" type="line"/>
      <point x="444" y="645" type="line"/>
    </contour>
  </outline>
</glyph>
<glyph name="u1080D" format="2">
  <advance width="722"/>
  <unicode hex="1080D"/>
  <note>
u1080D
</note>
  <outline>
    <contour>
      <point x="247" y="644" type="line"/>
      <point x="475" y="644" type="line"/>
      <point x="567" y="-3" type="line"/>
      <point x="644" y="3" type="line"/>
      <point x="542" y="714" type="line"/>
      <point x="181" y="714" type="line"/>
      <point x="79" y="3" type="line"/>
      <point x="155" y="-3" type="line"/>
    </contour>
  </outline>
</glyph>
<glyph name="u1080E" format="2">
  <advance width="697"/>
  <unicode hex="1080E"/>
  <note>
u1080E
</note>
  <outline>
    <contour>
      <point x="370" y="548" type="line"/>
      <point x="502" y="677" type="line"/>
      <point x="455" y="724" type="line"/>
      <point x="349" y="624" type="line"/>
      <point x="242" y="723" type="line"/>
      <point x="194" y="677" type="line"/>
      <point x="327" y="548" type="line"/>
    </contour>
    <contour>
      <point x="629" y="169" type="line"/>
      <point x="409" y="387" type="line"/>
      <point x="615" y="585" type="line"/>
      <point x="561" y="641" type="line"/>
      <point x="348" y="431" type="line"/>
      <point x="136" y="640" type="line"/>
      <point x="82" y="585" type="line"/>
      <point x="286" y="387" type="line"/>
      <point x="67" y="170" type="line"/>
      <point x="119" y="117" type="line"/>
      <point x="252" y="246" type="line" smooth="yes"/>
      <point x="277" y="270"/>
      <point x="298" y="298"/>
      <point x="316" y="330" type="curve"/>
      <point x="320" y="330" type="line"/>
      <point x="313" y="277"/>
      <point x="309" y="215"/>
      <point x="309" y="143" type="curve" smooth="yes"/>
      <point x="309" y="0" type="line"/>
      <point x="387" y="0" type="line"/>
      <point x="387" y="143" type="line" smooth="yes"/>
      <point x="387" y="203"/>
      <point x="383" y="265"/>
      <point x="374" y="330" type="curve"/>
      <point x="378" y="330" type="line"/>
      <point x="414" y="270"/>
      <point x="463" y="227"/>
      <point x="576" y="117" type="curve"/>
    </contour>
  </outline>
</glyph>
<glyph name="u1080F" format="2">
  <advance width="784"/>
  <unicode hex="1080F"/>
  <note>
u1080F
</note>
  <outline>
    <contour>
      <point x="348" y="238" type="line"/>
      <point x="370" y="254"/>
      <point x="378" y="261"/>
      <point x="409" y="291" type="curve" smooth="yes"/>
      <point x="569" y="448" type="line"/>
      <point x="697" y="324" type="line"/>
      <point x="751" y="376" type="line"/>
      <point x="577" y="543" type="line"/>
      <point x="553" y="543" type="line"/>
      <point x="320" y="310" type="line"/>
      <point x="88" y="543" type="line"/>
      <point x="34" y="488" type="line"/>
      <point x="221" y="299" type="line" smooth="yes"/>
      <point x="257" y="263"/>
      <point x="269" y="252"/>
      <point x="292" y="238" type="curve"/>
      <point x="290" y="233" type="line"/>
      <point x="259" y="236"/>
      <point x="226" y="238"/>
      <point x="191" y="238" type="curve" smooth="yes"/>
      <point x="126" y="238" type="line"/>
      <point x="126" y="168" type="line"/>
      <point x="507" y="168" type="line"/>
      <point x="507" y="238" type="line"/>
      <point x="455" y="238" type="line" smooth="yes"/>
      <point x="413" y="238"/>
      <point x="378" y="236"/>
      <point x="351" y="233" type="curve"/>
    </contour>
  </outline>
</glyph>
<glyph name="u10810" format="2">
  <advance width="557"/>
  <unicode hex="10810"/>
  <note>
u10810
</note>
  <outline>
    <contour>
      <point x="490" y="185" type="curve" smooth="yes"/>
      <point x="490" y="266"/>
      <point x="436" y="340"/>
      <point x="352" y="373" type="curve"/>
      <point x="433" y="416"/>
      <point x="479" y="479"/>
      <point x="479" y="548" type="curve" smooth="yes"/>
      <point x="479" y="653"/>
      <point x="391" y="722"/>
      <point x="282" y="722" type="curve" smooth="yes"/>
      <point x="172" y="722"/>
      <point x="78" y="652"/>
      <point x="78" y="548" type="curve" smooth="yes"/>
      <point x="78" y="472"/>
      <point x="108" y="423"/>
      <point x="205" y="363" type="curve"/>
      <point x="117" y="329"/>
      <point x="67" y="264"/>
      <point x="67" y="185" type="curve" smooth="yes"/>
      <point x="67" y="66"/>
      <point x="158" y="-10"/>
      <point x="279" y="-10" type="curve" smooth="yes"/>
      <point x="397" y="-10"/>
      <point x="490" y="62"/>
    </contour>
    <contour>
      <point x="409" y="181" type="curve" smooth="yes"/>
      <point x="409" y="106"/>
      <point x="356" y="61"/>
      <point x="277" y="61" type="curve" smooth="yes"/>
      <point x="200" y="61"/>
      <point x="148" y="107"/>
      <point x="148" y="181" type="curve" smooth="yes"/>
      <point x="148" y="257"/>
      <point x="191" y="312"/>
      <point x="278" y="344" type="curve"/>
      <point x="365" y="310"/>
      <point x="409" y="255"/>
    </contour>
    <contour>
      <point x="399" y="547" type="curve" smooth="yes"/>
      <point x="399" y="485"/>
      <point x="358" y="434"/>
      <point x="278" y="393" type="curve"/>
      <point x="200" y="432"/>
      <point x="158" y="481"/>
      <point x="158" y="548" type="curve" smooth="yes"/>
      <point x="158" y="608"/>
      <point x="212" y="652"/>
      <point x="279" y="652" type="curve" smooth="yes"/>
      <point x="347" y="652"/>
      <point x="399" y="608"/>
    </contour>
  </outline>
</glyph>
<glyph name="u10811" format="2">
  <advance width="621"/>
  <unicode hex="10811"/>
  <note>
u10811
</note>
  <outline>
    <contour>
      <point x="554" y="69" type="line"/>
      <point x="45" y="69" type="line"/>
      <point x="45" y="0" type="line"/>
      <point x="554" y="0" type="line"/>
    </contour>
    <contour>
      <point x="404" y="727" type="line"/>
      <point x="45" y="238" type="line"/>
      <point x="45" y="168" type="line"/>
      <point x="554" y="168" type="line"/>
      <point x="554" y="238" type="line"/>
      <point x="140" y="238" type="line"/>
      <point x="465" y="683" type="line"/>
    </contour>
  </outline>
</glyph>
<glyph name="u10812" format="2">
  <advance width="574"/>
  <unicode hex="10812"/>
  <note>
u10812
</note>
  <outline>
    <contour>
      <point x="529" y="428" type="line"/>
      <point x="325" y="428" type="line"/>
      <point x="325" y="714" type="line"/>
      <point x="248" y="714" type="line"/>
      <point x="248" y="428" type="line"/>
      <point x="45" y="428" type="line"/>
      <point x="45" y="359" type="line"/>
      <point x="248" y="359" type="line"/>
      <point x="248" y="0" type="line"/>
      <point x="325" y="0" type="line"/>
      <point x="325" y="359" type="line"/>
      <point x="529" y="359" type="line"/>
    </contour>
  </outline>
</glyph>
<glyph name="u10813" format="2">
  <advance width="824"/>
  <unicode hex="10813"/>
  <note>
u10813
</note>
  <outline>
    <contour>
      <point x="406" y="657" type="curve" smooth="yes"/>
      <point x="566" y="657"/>
      <point x="652" y="538"/>
      <point x="664" y="300" type="curve" smooth="yes"/>
      <point x="679" y="-2" type="line"/>
      <point x="757" y="2" type="line"/>
      <point x="743" y="300" type="line" smooth="yes"/>
      <point x="730" y="577"/>
      <point x="617" y="728"/>
      <point x="423" y="728" type="curve" smooth="yes"/>
      <point x="399" y="728" type="line" smooth="yes"/>
      <point x="204" y="728"/>
      <point x="90" y="577"/>
      <point x="79" y="303" type="curve" smooth="yes"/>
      <point x="67" y="2" type="line"/>
      <point x="145" y="-2" type="line"/>
      <point x="156" y="303" type="line" smooth="yes"/>
      <point x="165" y="539"/>
      <point x="248" y="657"/>
    </contour>
    <contour>
      <point x="246" y="303" type="line"/>
      <point x="246" y="139"/>
      <point x="268" y="-6"/>
      <point x="401" y="-6" type="curve" smooth="yes"/>
      <point x="411" y="-6" type="line" smooth="yes"/>
      <point x="540" y="-6"/>
      <point x="566" y="126"/>
      <point x="566" y="303" type="curve"/>
      <point x="489" y="303" type="line"/>
      <point x="489" y="175"/>
      <point x="484" y="64"/>
      <point x="404" y="64" type="curve" smooth="yes"/>
      <point x="327" y="64"/>
      <point x="323" y="165"/>
      <point x="323" y="303" type="curve"/>
    </contour>
  </outline>
</glyph>
<glyph name="u10814" format="2">
  <advance width="832"/>
  <unicode hex="10814"/>
  <note>
u10814
</note>
  <outline>
    <contour>
      <point x="359" y="337" type="line"/>
      <point x="359" y="387" type="line"/>
      <point x="178" y="656" type="line"/>
      <point x="114" y="612" type="line"/>
      <point x="282" y="362" type="line"/>
      <point x="56" y="43" type="line"/>
      <point x="115" y="-5" type="line"/>
    </contour>
    <contour>
      <point x="717" y="-5" type="line"/>
      <point x="776" y="43" type="line"/>
      <point x="551" y="362" type="line"/>
      <point x="714" y="611" type="line"/>
      <point x="651" y="656" type="line"/>
      <point x="473" y="387" type="line"/>
      <point x="473" y="337" type="line"/>
    </contour>
    <contour>
      <point x="444" y="460" type="line"/>
      <point x="592" y="681" type="line"/>
      <point x="527" y="724" type="line"/>
      <point x="419" y="557" type="line"/>
      <point x="308" y="723" type="line"/>
      <point x="248" y="682" type="line"/>
      <point x="396" y="460" type="line"/>
    </contour>
  </outline>
</glyph>
<glyph name="u10815" format="2">
  <advance width="843"/>
  <unicode hex="10815"/>
  <note>
u10815
</note>
  <outline>
    <contour>
      <point x="177" y="726" type="line"/>
      <point x="114" y="680" type="line"/>
      <point x="367" y="390" type="line"/>
      <point x="56" y="36" type="line"/>
      <point x="119" y="-10" type="line"/>
      <point x="421" y="331" type="line"/>
      <point x="723" y="-10" type="line"/>
      <point x="786" y="36" type="line"/>
      <point x="475" y="390" type="line"/>
      <point x="728" y="680" type="line"/>
      <point x="665" y="726" type="line"/>
      <point x="421" y="448" type="line"/>
    </contour>
    <contour>
      <point x="457" y="227" type="line"/>
      <point x="379" y="227" type="line"/>
      <point x="379" y="198" type="line" smooth="yes"/>
      <point x="379" y="47"/>
      <point x="408" y="0"/>
      <point x="549" y="0" type="curve" smooth="yes"/>
      <point x="567" y="0" type="line"/>
      <point x="567" y="71" type="line"/>
      <point x="549" y="71" type="line" smooth="yes"/>
      <point x="469" y="71"/>
      <point x="457" y="101"/>
      <point x="457" y="201" type="curve" smooth="yes"/>
    </contour>
  </outline>
</glyph>
<glyph name="u10816" format="2">
  <advance width="930"/>
  <unicode hex="10816"/>
  <note>
u10816
</note>
  <outline>
    <contour>
      <point x="493" y="238" type="line"/>
      <point x="515" y="254"/>
      <point x="523" y="261"/>
      <point x="554" y="291" type="curve" smooth="yes"/>
      <point x="715" y="448" type="line"/>
      <point x="843" y="324" type="line"/>
      <point x="897" y="376" type="line"/>
      <point x="723" y="543" type="line"/>
      <point x="699" y="543" type="line"/>
      <point x="466" y="310" type="line"/>
      <point x="234" y="543" type="line"/>
      <point x="209" y="543" type="line"/>
      <point x="34" y="376" type="line"/>
      <point x="86" y="325" type="line"/>
      <point x="217" y="448" type="line"/>
      <point x="366" y="299" type="line" smooth="yes"/>
      <point x="393" y="272"/>
      <point x="415" y="252"/>
      <point x="437" y="238" type="curve"/>
      <point x="435" y="233" type="line"/>
      <point x="404" y="236"/>
      <point x="371" y="238"/>
      <point x="336" y="238" type="curve" smooth="yes"/>
      <point x="271" y="238" type="line"/>
      <point x="271" y="168" type="line"/>
      <point x="652" y="168" type="line"/>
      <point x="652" y="238" type="line"/>
      <point x="600" y="238" type="line" smooth="yes"/>
      <point x="557" y="238"/>
      <point x="522" y="236"/>
      <point x="496" y="233" type="curve"/>
    </contour>
  </outline>
</glyph>
<glyph name="u10817" format="2">
  <advance width="843"/>
  <unicode hex="10817"/>
  <note>
u10817
</note>
  <outline>
    <contour>
      <point x="421" y="144" type="curve" smooth="yes"/>
      <point x="647" y="144"/>
      <point x="786" y="229"/>
      <point x="786" y="377" type="curve" smooth="yes"/>
      <point x="786" y="543"/>
      <point x="612" y="609"/>
      <point x="421" y="609" type="curve" smooth="yes"/>
      <point x="235" y="609"/>
      <point x="56" y="544"/>
      <point x="56" y="377" type="curve" smooth="yes"/>
      <point x="56" y="229"/>
      <point x="195" y="144"/>
    </contour>
    <contour>
      <point x="709" y="377" type="curve" smooth="yes"/>
      <point x="709" y="285"/>
      <point x="617" y="224"/>
      <point x="459" y="212" type="curve"/>
      <point x="459" y="540" type="line"/>
      <point x="607" y="533"/>
      <point x="709" y="471"/>
    </contour>
    <contour>
      <point x="134" y="377" type="curve" smooth="yes"/>
      <point x="134" y="471"/>
      <point x="231" y="533"/>
      <point x="381" y="540" type="curve"/>
      <point x="381" y="212" type="line"/>
      <point x="232" y="221"/>
      <point x="134" y="285"/>
    </contour>
  </outline>
</glyph>
<glyph name="u10818" format="2">
  <advance width="815"/>
  <unicode hex="10818"/>
  <note>
u10818
</note>
  <outline>
    <contour>
      <point x="457" y="367" type="line"/>
      <point x="475" y="376"/>
      <point x="494" y="391"/>
      <point x="516" y="411" type="curve" smooth="yes"/>
      <point x="538" y="431"/>
      <point x="606" y="499"/>
      <point x="723" y="613" type="curve"/>
      <point x="669" y="668" type="line"/>
      <point x="407" y="415" type="line"/>
      <point x="145" y="668" type="line"/>
      <point x="91" y="613" type="line"/>
      <point x="258" y="449" type="line" smooth="yes"/>
      <point x="300" y="407"/>
      <point x="333" y="380"/>
      <point x="357" y="367" type="curve"/>
      <point x="357" y="363" type="line"/>
      <point x="328" y="344"/>
      <point x="293" y="314"/>
      <point x="253" y="275" type="curve" smooth="yes"/>
      <point x="90" y="115" type="line"/>
      <point x="145" y="62" type="line"/>
      <point x="407" y="315" type="line"/>
      <point x="669" y="62" type="line"/>
      <point x="725" y="115" type="line"/>
      <point x="559" y="278" type="line" smooth="yes"/>
      <point x="516" y="321"/>
      <point x="481" y="349"/>
      <point x="457" y="363" type="curve"/>
    </contour>
    <contour>
      <point x="723" y="466" type="line"/>
      <point x="646" y="466" type="line"/>
      <point x="646" y="262" type="line"/>
      <point x="723" y="262" type="line"/>
    </contour>
    <contour>
      <point x="168" y="466" type="line"/>
      <point x="91" y="466" type="line"/>
      <point x="91" y="262" type="line"/>
      <point x="168" y="262" type="line"/>
    </contour>
  </outline>
</glyph>
<glyph name="u10819" format="2">
  <advance width="617"/>
  <unicode hex="10819"/>
  <note>
u10819
</note>
  <outline>
    <contour>
      <point x="550" y="518" type="line"/>
      <point x="67" y="518" type="line"/>
      <point x="67" y="449" type="line"/>
      <point x="267" y="449" type="line"/>
      <point x="267" y="0" type="line"/>
      <point x="345" y="0" type="line"/>
      <point x="345" y="449" type="line"/>
      <point x="550" y="449" type="line"/>
    </contour>
    <contour>
      <point x="550" y="714" type="line"/>
      <point x="67" y="714" type="line"/>
      <point x="67" y="645" type="line"/>
      <point x="550" y="645" type="line"/>
    </contour>
  </outline>
</glyph>
<glyph name="u1081A" format="2">
  <advance width="614"/>
  <unicode hex="1081A"/>
  <note>
u1081A
</note>
  <outline>
    <contour>
      <point x="143" y="163" type="line"/>
      <point x="143" y="557" type="line"/>
      <point x="67" y="557" type="line"/>
      <point x="67" y="163" type="line"/>
    </contour>
    <contour>
      <point x="547" y="163" type="line"/>
      <point x="547" y="557" type="line"/>
      <point x="471" y="557" type="line"/>
      <point x="471" y="163" type="line"/>
    </contour>
    <contour>
      <point x="192" y="465" type="curve" smooth="yes"/>
      <point x="192" y="415"/>
      <point x="221" y="377"/>
      <point x="278" y="353" type="curve" smooth="yes"/>
      <point x="302" y="343" type="line" smooth="yes"/>
      <point x="335" y="329"/>
      <point x="349" y="312"/>
      <point x="349" y="288" type="curve" smooth="yes"/>
      <point x="349" y="276"/>
      <point x="346" y="264"/>
      <point x="340" y="251" type="curve" smooth="yes"/>
      <point x="235" y="16" type="line"/>
      <point x="307" y="-10" type="line"/>
      <point x="414" y="232" type="line" smooth="yes"/>
      <point x="425" y="256"/>
      <point x="429" y="277"/>
      <point x="429" y="297" type="curve" smooth="yes"/>
      <point x="429" y="347"/>
      <point x="400" y="384"/>
      <point x="343" y="409" type="curve" smooth="yes"/>
      <point x="319" y="419" type="line" smooth="yes"/>
      <point x="284" y="433"/>
      <point x="273" y="450"/>
      <point x="273" y="474" type="curve" smooth="yes"/>
      <point x="273" y="488"/>
      <point x="277" y="500"/>
      <point x="282" y="511" type="curve" smooth="yes"/>
      <point x="367" y="708" type="line"/>
      <point x="295" y="734" type="line"/>
      <point x="207" y="530" type="line" smooth="yes"/>
      <point x="197" y="508"/>
      <point x="192" y="486"/>
    </contour>
  </outline>
</glyph>
<glyph name="u1081B" format="2">
  <advance width="652"/>
  <unicode hex="1081B"/>
  <note>
u1081B
</note>
  <outline>
    <contour>
      <point x="618" y="69" type="line"/>
      <point x="231" y="69" type="line"/>
      <point x="524" y="453" type="line" smooth="yes"/>
      <point x="549" y="485"/>
      <point x="560" y="515"/>
      <point x="560" y="540" type="curve" smooth="yes"/>
      <point x="560" y="576"/>
      <point x="539" y="611"/>
      <point x="497" y="644" type="curve" smooth="yes"/>
      <point x="388" y="728" type="line"/>
      <point x="340" y="666" type="line"/>
      <point x="447" y="585" type="line" smooth="yes"/>
      <point x="468" y="569"/>
      <point x="479" y="552"/>
      <point x="479" y="534" type="curve" smooth="yes"/>
      <point x="479" y="521"/>
      <point x="473" y="507"/>
      <point x="462" y="493" type="curve" smooth="yes"/>
      <point x="405" y="421" type="line"/>
      <point x="245" y="545" type="line"/>
      <point x="197" y="484" type="line"/>
      <point x="357" y="359" type="line"/>
      <point x="256" y="227" type="line"/>
      <point x="92" y="352" type="line"/>
      <point x="45" y="291" type="line"/>
      <point x="209" y="167" type="line"/>
      <point x="133" y="69" type="line"/>
      <point x="46" y="69" type="line"/>
      <point x="46" y="0" type="line"/>
      <point x="618" y="0" type="line"/>
    </contour>
  </outline>
</glyph>
<glyph name="u1081C" format="2">
  <advance width="761"/>
  <unicode hex="1081C"/>
  <note>
u1081C
</note>
  <outline>
    <contour>
      <point x="330" y="498" type="line"/>
      <point x="341" y="520"/>
      <point x="346" y="542"/>
      <point x="346" y="565" type="curve" smooth="yes"/>
      <point x="346" y="614"/>
      <point x="316" y="651"/>
      <point x="257" y="677" type="curve" smooth="yes"/>
      <point x="132" y="731" type="line"/>
      <point x="100" y="661" type="line"/>
      <point x="220" y="609" type="line" smooth="yes"/>
      <point x="250" y="596"/>
      <point x="265" y="578"/>
      <point x="265" y="553" type="curve" smooth="yes"/>
      <point x="265" y="543"/>
      <point x="262" y="532"/>
      <point x="258" y="522" type="curve" smooth="yes"/>
      <point x="67" y="84" type="line"/>
      <point x="138" y="53" type="line"/>
    </contour>
    <contour>
      <point x="524" y="552" type="curve" smooth="yes"/>
      <point x="474" y="552"/>
      <point x="429" y="518"/>
      <point x="406" y="465" type="curve" smooth="yes"/>
      <point x="215" y="27" type="line"/>
      <point x="286" y="-4" type="line"/>
      <point x="473" y="429" type="line" smooth="yes"/>
      <point x="485" y="456"/>
      <point x="502" y="469"/>
      <point x="527" y="469" type="curve" smooth="yes"/>
      <point x="538" y="469"/>
      <point x="550" y="466"/>
      <point x="563" y="461" type="curve" smooth="yes"/>
      <point x="683" y="411" type="line"/>
      <point x="716" y="481" type="line"/>
      <point x="591" y="537" type="line" smooth="yes"/>
      <point x="567" y="548"/>
      <point x="544" y="552"/>
    </contour>
  </outline>
</glyph>
<glyph name="u1081D" format="2">
  <advance width="651"/>
  <unicode hex="1081D"/>
  <note>
u1081D
</note>
  <outline>
    <contour>
      <point x="126" y="726" type="line"/>
      <point x="67" y="675" type="line"/>
      <point x="340" y="359" type="line"/>
      <point x="72" y="48" type="line"/>
      <point x="131" y="-3" type="line"/>
      <point x="411" y="320" type="line"/>
      <point x="411" y="398" type="line"/>
    </contour>
    <contour>
      <point x="538" y="396" type="line"/>
      <point x="538" y="714" type="line"/>
      <point x="460" y="714" type="line"/>
      <point x="460" y="396" type="line"/>
    </contour>
    <contour>
      <point x="538" y="0" type="line"/>
      <point x="538" y="318" type="line"/>
      <point x="460" y="318" type="line"/>
      <point x="460" y="0" type="line"/>
    </contour>
  </outline>
</glyph>
<glyph name="u1081E" format="2">
  <advance width="664"/>
  <unicode hex="1081E"/>
  <note>
u1081E
</note>
  <outline>
    <contour>
      <point x="574" y="326" type="line"/>
      <point x="370" y="326" type="line"/>
      <point x="370" y="461" type="line"/>
      <point x="574" y="461" type="line"/>
      <point x="574" y="530" type="line"/>
      <point x="370" y="530" type="line"/>
      <point x="370" y="714" type="line"/>
      <point x="293" y="714" type="line"/>
      <point x="293" y="530" type="line"/>
      <point x="90" y="530" type="line"/>
      <point x="90" y="461" type="line"/>
      <point x="293" y="461" type="line"/>
      <point x="293" y="326" type="line"/>
      <point x="90" y="326" type="line"/>
      <point x="90" y="257" type="line"/>
      <point x="293" y="257" type="line"/>
      <point x="293" y="0" type="line"/>
      <point x="370" y="0" type="line"/>
      <point x="370" y="257" type="line"/>
      <point x="574" y="257" type="line"/>
    </contour>
  </outline>
</glyph>
<glyph name="u1081F" format="2">
  <advance width="385"/>
  <unicode hex="1081F"/>
  <note>
u1081F
</note>
  <outline>
    <contour>
      <point x="73" y="465" type="curve" smooth="yes"/>
      <point x="73" y="415"/>
      <point x="102" y="377"/>
      <point x="160" y="353" type="curve" smooth="yes"/>
      <point x="184" y="343" type="line" smooth="yes"/>
      <point x="214" y="330"/>
      <point x="231" y="313"/>
      <point x="231" y="288" type="curve" smooth="yes"/>
      <point x="231" y="277"/>
      <point x="227" y="265"/>
      <point x="221" y="251" type="curve" smooth="yes"/>
      <point x="116" y="16" type="line"/>
      <point x="189" y="-10" type="line"/>
      <point x="296" y="232" type="line" smooth="yes"/>
      <point x="306" y="254"/>
      <point x="311" y="276"/>
      <point x="311" y="297" type="curve" smooth="yes"/>
      <point x="311" y="346"/>
      <point x="282" y="383"/>
      <point x="224" y="409" type="curve" smooth="yes"/>
      <point x="201" y="419" type="line" smooth="yes"/>
      <point x="166" y="435"/>
      <point x="155" y="450"/>
      <point x="155" y="474" type="curve" smooth="yes"/>
      <point x="155" y="487"/>
      <point x="158" y="500"/>
      <point x="163" y="511" type="curve" smooth="yes"/>
      <point x="249" y="708" type="line"/>
      <point x="176" y="734" type="line"/>
      <point x="89" y="530" type="line" smooth="yes"/>
      <point x="78" y="505"/>
      <point x="73" y="484"/>
    </contour>
  </outline>
</glyph>
<glyph name="u10820" format="2">
  <advance width="753"/>
  <unicode hex="10820"/>
  <note>
u10820
</note>
  <outline>
    <contour>
      <point x="374" y="101" type="line"/>
      <point x="140" y="377" type="line"/>
      <point x="79" y="324" type="line"/>
      <point x="363" y="0" type="line"/>
      <point x="392" y="0" type="line"/>
      <point x="674" y="323" type="line"/>
      <point x="614" y="376" type="line"/>
    </contour>
    <contour>
      <point x="409" y="369" type="line"/>
      <point x="674" y="672" type="line"/>
      <point x="614" y="725" type="line"/>
      <point x="374" y="450" type="line"/>
      <point x="140" y="726" type="line"/>
      <point x="79" y="673" type="line"/>
      <point x="345" y="369" type="line"/>
    </contour>
  </outline>
</glyph>
<glyph name="u10821" format="2">
  <advance width="522"/>
  <unicode hex="10821"/>
  <note>
u10821
</note>
  <outline>
    <contour>
      <point x="124" y="21" type="line"/>
      <point x="197" y="-10" type="line"/>
      <point x="360" y="349" type="line"/>
      <point x="296" y="380"/>
      <point x="251" y="405"/>
      <point x="228" y="421" type="curve" smooth="yes"/>
      <point x="178" y="456"/>
      <point x="161" y="482"/>
      <point x="161" y="534" type="curve" smooth="yes"/>
      <point x="161" y="595"/>
      <point x="213" y="653"/>
      <point x="273" y="653" type="curve" smooth="yes"/>
      <point x="324" y="653"/>
      <point x="384" y="625"/>
      <point x="445" y="571" type="curve"/>
      <point x="489" y="633" type="line"/>
      <point x="415" y="700"/>
      <point x="357" y="724"/>
      <point x="274" y="724" type="curve" smooth="yes"/>
      <point x="239" y="724"/>
      <point x="207" y="715"/>
      <point x="177" y="698" type="curve" smooth="yes"/>
      <point x="117" y="663"/>
      <point x="79" y="598"/>
      <point x="79" y="532" type="curve" smooth="yes"/>
      <point x="79" y="437"/>
      <point x="123" y="379"/>
      <point x="256" y="313" type="curve"/>
    </contour>
  </outline>
</glyph>
<glyph name="u10822" format="2">
  <advance width="838"/>
  <unicode hex="10822"/>
  <note>
u10822
</note>
  <outline>
    <contour>
      <point x="457" y="469" type="line"/>
      <point x="379" y="469" type="line"/>
      <point x="379" y="426" type="line" smooth="yes"/>
      <point x="379" y="374"/>
      <point x="382" y="319"/>
      <point x="387" y="264" type="curve"/>
      <point x="382" y="262" type="line"/>
      <point x="373" y="279"/>
      <point x="353" y="299"/>
      <point x="322" y="321" type="curve" smooth="yes"/>
      <point x="136" y="452" type="line"/>
      <point x="248" y="556" type="line"/>
      <point x="196" y="614" type="line"/>
      <point x="45" y="472" type="line"/>
      <point x="45" y="425" type="line"/>
      <point x="289" y="255" type="line" smooth="yes"/>
      <point x="318" y="235"/>
      <point x="350" y="217"/>
      <point x="385" y="202" type="curve"/>
      <point x="382" y="197" type="line"/>
      <point x="366" y="200"/>
      <point x="332" y="202"/>
      <point x="278" y="202" type="curve" smooth="yes"/>
      <point x="177" y="202" type="line"/>
      <point x="177" y="130" type="line"/>
      <point x="663" y="130" type="line"/>
      <point x="663" y="202" type="line"/>
      <point x="597" y="202" type="line" smooth="yes"/>
      <point x="518" y="202"/>
      <point x="471" y="200"/>
      <point x="457" y="197" type="curve"/>
      <point x="454" y="202" type="line"/>
      <point x="486" y="215"/>
      <point x="518" y="232"/>
      <point x="551" y="255" type="curve" smooth="yes"/>
      <point x="794" y="425" type="line"/>
      <point x="794" y="472" type="line"/>
      <point x="643" y="614" type="line"/>
      <point x="590" y="556" type="line"/>
      <point x="703" y="451" type="line"/>
      <point x="516" y="321" type="line" smooth="yes"/>
      <point x="484" y="299"/>
      <point x="463" y="280"/>
      <point x="453" y="262" type="curve"/>
      <point x="449" y="264" type="line"/>
      <point x="455" y="316"/>
      <point x="457" y="370"/>
      <point x="457" y="426" type="curve" smooth="yes"/>
    </contour>
  </outline>
</glyph>
<glyph name="u10823" format="2">
  <advance width="687"/>
  <unicode hex="10823"/>
  <note>
u10823
</note>
  <outline>
    <contour>
      <point x="643" y="0" type="line"/>
      <point x="643" y="69" type="line"/>
      <point x="427" y="69" type="line"/>
      <point x="520" y="194"/>
      <point x="566" y="322"/>
      <point x="566" y="451" type="curve" smooth="yes"/>
      <point x="566" y="625"/>
      <point x="484" y="727"/>
      <point x="344" y="727" type="curve" smooth="yes"/>
      <point x="193" y="727"/>
      <point x="121" y="611"/>
      <point x="121" y="451" type="curve" smooth="yes"/>
      <point x="121" y="324"/>
      <point x="167" y="192"/>
      <point x="259" y="69" type="curve"/>
      <point x="45" y="69" type="line"/>
      <point x="45" y="0" type="line"/>
    </contour>
    <contour>
      <point x="198" y="451" type="curve" smooth="yes"/>
      <point x="198" y="583"/>
      <point x="249" y="655"/>
      <point x="344" y="655" type="curve" smooth="yes"/>
      <point x="440" y="655"/>
      <point x="490" y="583"/>
      <point x="490" y="451" type="curve" smooth="yes"/>
      <point x="490" y="318"/>
      <point x="438" y="181"/>
      <point x="344" y="71" type="curve"/>
      <point x="249" y="182"/>
      <point x="198" y="319"/>
    </contour>
  </outline>
</glyph>
<glyph name="u10824" format="2">
  <advance width="792"/>
  <unicode hex="10824"/>
  <note>
u10824
</note>
  <outline>
    <contour>
      <point x="252" y="0" type="line"/>
      <point x="329" y="0" type="line"/>
      <point x="329" y="372" type="line"/>
      <point x="252" y="372" type="line"/>
    </contour>
    <contour>
      <point x="675" y="300" type="line"/>
      <point x="735" y="353" type="line"/>
      <point x="410" y="724" type="line"/>
      <point x="381" y="724" type="line"/>
      <point x="56" y="353" type="line"/>
      <point x="117" y="300" type="line"/>
      <point x="393" y="623" type="line"/>
    </contour>
    <contour>
      <point x="462" y="0" type="line"/>
      <point x="540" y="0" type="line"/>
      <point x="540" y="372" type="line"/>
      <point x="462" y="372" type="line"/>
    </contour>
  </outline>
</glyph>
<glyph name="u10825" format="2">
  <advance width="698"/>
  <unicode hex="10825"/>
  <note>
u10825
</note>
  <outline>
    <contour>
      <point x="628" y="453" type="line" smooth="yes"/>
      <point x="652" y="483"/>
      <point x="664" y="512"/>
      <point x="664" y="540" type="curve" smooth="yes"/>
      <point x="664" y="576"/>
      <point x="643" y="611"/>
      <point x="601" y="644" type="curve" smooth="yes"/>
      <point x="492" y="728" type="line"/>
      <point x="443" y="668" type="line"/>
      <point x="550" y="588" type="line" smooth="yes"/>
      <point x="571" y="572"/>
      <point x="582" y="555"/>
      <point x="582" y="535" type="curve" smooth="yes"/>
      <point x="582" y="522"/>
      <point x="576" y="508"/>
      <point x="565" y="494" type="curve" smooth="yes"/>
      <point x="457" y="355" type="line"/>
      <point x="293" y="483" type="line"/>
      <point x="247" y="422" type="line"/>
      <point x="412" y="294" type="line"/>
      <point x="259" y="98" type="line"/>
      <point x="92" y="225" type="line"/>
      <point x="45" y="163" type="line"/>
      <point x="274" y="-6" type="line"/>
    </contour>
  </outline>
</glyph>
<glyph name="u10826" format="2">
  <advance width="603"/>
  <unicode hex="10826"/>
  <note>
u10826
</note>
  <outline>
    <contour>
      <point x="101" y="-11" type="line"/>
      <point x="166" y="32"/>
      <point x="231" y="88"/>
      <point x="297" y="159" type="curve"/>
      <point x="364" y="91"/>
      <point x="433" y="34"/>
      <point x="504" y="-11" type="curve"/>
      <point x="547" y="52" type="line"/>
      <point x="479" y="95"/>
      <point x="413" y="149"/>
      <point x="347" y="215" type="curve"/>
      <point x="445" y="334"/>
      <point x="494" y="438"/>
      <point x="494" y="527" type="curve" smooth="yes"/>
      <point x="494" y="653"/>
      <point x="414" y="734"/>
      <point x="292" y="734" type="curve" smooth="yes"/>
      <point x="169" y="734"/>
      <point x="90" y="651"/>
      <point x="90" y="527" type="curve" smooth="yes"/>
      <point x="90" y="438"/>
      <point x="146" y="327"/>
      <point x="249" y="210" type="curve"/>
      <point x="193" y="154"/>
      <point x="129" y="101"/>
      <point x="56" y="52" type="curve"/>
    </contour>
    <contour>
      <point x="165" y="527" type="curve" smooth="yes"/>
      <point x="165" y="611"/>
      <point x="212" y="658"/>
      <point x="292" y="658" type="curve" smooth="yes"/>
      <point x="371" y="658"/>
      <point x="418" y="610"/>
      <point x="418" y="527" type="curve" smooth="yes"/>
      <point x="418" y="445"/>
      <point x="378" y="357"/>
      <point x="300" y="265" type="curve"/>
      <point x="210" y="367"/>
      <point x="165" y="454"/>
    </contour>
  </outline>
</glyph>
<glyph name="u10827" format="2">
  <advance width="815"/>
  <unicode hex="10827"/>
  <note>
u10827
</note>
  <outline>
    <contour>
      <point x="597" y="-37" type="line"/>
      <point x="426" y="219" type="line"/>
      <point x="361" y="175" type="line"/>
      <point x="530" y="-79" type="line"/>
    </contour>
    <contour>
      <point x="566" y="361" type="curve" smooth="yes"/>
      <point x="566" y="505"/>
      <point x="635" y="621"/>
      <point x="748" y="664" type="curve"/>
      <point x="716" y="725" type="line"/>
      <point x="571" y="674"/>
      <point x="487" y="522"/>
      <point x="487" y="361" type="curve" smooth="yes"/>
      <point x="487" y="203"/>
      <point x="574" y="47"/>
      <point x="716" y="-3" type="curve"/>
      <point x="748" y="58" type="line"/>
      <point x="635" y="101"/>
      <point x="566" y="216"/>
    </contour>
    <contour>
      <point x="249" y="361" type="curve" smooth="yes"/>
      <point x="249" y="217"/>
      <point x="180" y="102"/>
      <point x="67" y="58" type="curve"/>
      <point x="99" y="-3" type="line"/>
      <point x="240" y="47"/>
      <point x="328" y="198"/>
      <point x="328" y="361" type="curve" smooth="yes"/>
      <point x="328" y="522"/>
      <point x="244" y="672"/>
      <point x="99" y="725" type="curve"/>
      <point x="67" y="664" type="line"/>
      <point x="180" y="621"/>
      <point x="249" y="506"/>
    </contour>
  </outline>
</glyph>
<glyph name="u10828" format="2">
  <advance width="659"/>
  <unicode hex="10828"/>
  <note>
u10828
</note>
  <outline>
    <contour>
      <point x="603" y="688" type="line"/>
      <point x="527" y="715" type="line"/>
      <point x="392" y="285" type="line" smooth="yes"/>
      <point x="369" y="211"/>
      <point x="344" y="118"/>
      <point x="336" y="62" type="curve"/>
      <point x="331" y="62" type="line"/>
      <point x="326" y="113"/>
      <point x="301" y="208"/>
      <point x="275" y="288" type="curve" smooth="yes"/>
      <point x="136" y="715" type="line"/>
      <point x="56" y="691" type="line"/>
      <point x="275" y="0" type="line"/>
      <point x="386" y="0" type="line"/>
    </contour>
  </outline>
</glyph>
<glyph name="u10829" format="2">
  <advance width="661"/>
  <unicode hex="10829"/>
  <note>
u10829
</note>
  <outline>
    <contour>
      <point x="594" y="714" type="line"/>
      <point x="516" y="714" type="line"/>
      <point x="516" y="518" type="line"/>
      <point x="395" y="518" type="line"/>
      <point x="395" y="714" type="line"/>
      <point x="317" y="714" type="line"/>
      <point x="317" y="518" type="line"/>
      <point x="191" y="518" type="line"/>
      <point x="191" y="714" type="line"/>
      <point x="113" y="714" type="line"/>
      <point x="113" y="0" type="line"/>
      <point x="191" y="0" type="line"/>
      <point x="191" y="449" type="line"/>
      <point x="594" y="449" type="line"/>
    </contour>
  </outline>
</glyph>
<glyph name="u1082A" format="2">
  <advance width="803"/>
  <unicode hex="1082A"/>
  <note>
u1082A
</note>
  <outline>
    <contour>
      <point x="432" y="464" type="line"/>
      <point x="355" y="464" type="line"/>
      <point x="355" y="395" type="line" smooth="yes"/>
      <point x="355" y="339"/>
      <point x="361" y="294"/>
      <point x="373" y="261" type="curve" smooth="yes"/>
      <point x="396" y="195"/>
      <point x="436" y="168"/>
      <point x="543" y="168" type="curve" smooth="yes"/>
      <point x="624" y="168" type="line"/>
      <point x="624" y="241" type="line"/>
      <point x="543" y="241" type="line" smooth="yes"/>
      <point x="459" y="241"/>
      <point x="432" y="282"/>
      <point x="432" y="397" type="curve" smooth="yes"/>
    </contour>
    <contour>
      <point x="624" y="69" type="line"/>
      <point x="154" y="69" type="line"/>
      <point x="154" y="0" type="line"/>
      <point x="624" y="0" type="line"/>
    </contour>
    <contour>
      <point x="675" y="300" type="line"/>
      <point x="735" y="353" type="line"/>
      <point x="410" y="724" type="line"/>
      <point x="381" y="724" type="line"/>
      <point x="56" y="353" type="line"/>
      <point x="117" y="300" type="line"/>
      <point x="393" y="623" type="line"/>
    </contour>
  </outline>
</glyph>
<glyph name="u1082B" format="2">
  <advance width="753"/>
  <unicode hex="1082B"/>
  <note>
u1082B
</note>
  <outline>
    <contour>
      <point x="140" y="171" type="line"/>
      <point x="140" y="105" type="line"/>
      <point x="613" y="105" type="line"/>
      <point x="613" y="171" type="line"/>
      <point x="501" y="171" type="line" smooth="yes"/>
      <point x="457" y="171"/>
      <point x="422" y="169"/>
      <point x="397" y="165" type="curve"/>
      <point x="396" y="168" type="line"/>
      <point x="421" y="183"/>
      <point x="448" y="207"/>
      <point x="478" y="241" type="curve" smooth="yes"/>
      <point x="674" y="464" type="line"/>
      <point x="619" y="518" type="line"/>
      <point x="374" y="237" type="line"/>
      <point x="136" y="515" type="line"/>
      <point x="79" y="465" type="line"/>
      <point x="274" y="241" type="line" smooth="yes"/>
      <point x="309" y="200"/>
      <point x="336" y="176"/>
      <point x="354" y="168" type="curve"/>
      <point x="353" y="165" type="line"/>
      <point x="333" y="169"/>
      <point x="299" y="171"/>
      <point x="251" y="171" type="curve" smooth="yes"/>
    </contour>
    <contour>
      <point x="140" y="66" type="line"/>
      <point x="140" y="0" type="line"/>
      <point x="613" y="0" type="line"/>
      <point x="613" y="66" type="line"/>
    </contour>
    <contour>
      <point x="409" y="374" type="line"/>
      <point x="670" y="675" type="line"/>
      <point x="614" y="725" type="line"/>
      <point x="374" y="450" type="line"/>
      <point x="140" y="726" type="line"/>
      <point x="81" y="675" type="line"/>
      <point x="345" y="374" type="line"/>
    </contour>
  </outline>
</glyph>
<glyph name="u1082C" format="2">
  <advance width="909"/>
  <unicode hex="1082C"/>
  <note>
u1082C
</note>
  <outline>
    <contour>
      <point x="512" y="-4" type="line"/>
      <point x="586" y="206" type="line" smooth="yes"/>
      <point x="602" y="253"/>
      <point x="616" y="309"/>
      <point x="618" y="329" type="curve"/>
      <point x="622" y="329" type="line"/>
      <point x="624" y="310"/>
      <point x="642" y="238"/>
      <point x="653" y="207" type="curve" smooth="yes"/>
      <point x="728" y="-4" type="line"/>
      <point x="810" y="6" type="line"/>
      <point x="665" y="402" type="line"/>
      <point x="668" y="407" type="line"/>
      <point x="682" y="404"/>
      <point x="722" y="402"/>
      <point x="786" y="402" type="curve" smooth="yes"/>
      <point x="853" y="402" type="line"/>
      <point x="853" y="471" type="line"/>
      <point x="660" y="471" type="line"/>
      <point x="660" y="714" type="line"/>
      <point x="582" y="714" type="line"/>
      <point x="582" y="471" type="line"/>
      <point x="391" y="471" type="line"/>
      <point x="391" y="402" type="line"/>
      <point x="471" y="402" type="line" smooth="yes"/>
      <point x="525" y="402"/>
      <point x="560" y="404"/>
      <point x="575" y="407" type="curve"/>
      <point x="577" y="402" type="line"/>
      <point x="432" y="6" type="line"/>
    </contour>
    <contour>
      <point x="271" y="361" type="curve" smooth="yes"/>
      <point x="271" y="215"/>
      <point x="201" y="101"/>
      <point x="90" y="58" type="curve"/>
      <point x="121" y="-3" type="line"/>
      <point x="265" y="50"/>
      <point x="351" y="201"/>
      <point x="351" y="361" type="curve" smooth="yes"/>
      <point x="351" y="522"/>
      <point x="266" y="672"/>
      <point x="121" y="725" type="curve"/>
      <point x="90" y="664" type="line"/>
      <point x="201" y="621"/>
      <point x="271" y="508"/>
    </contour>
  </outline>
</glyph>
<glyph name="u1082D" format="2">
  <advance width="539"/>
  <unicode hex="1082D"/>
  <note>
u1082D
</note>
  <outline>
    <contour>
      <point x="494" y="428" type="line"/>
      <point x="191" y="428" type="line"/>
      <point x="191" y="714" type="line"/>
      <point x="113" y="714" type="line"/>
      <point x="113" y="0" type="line"/>
      <point x="191" y="0" type="line"/>
      <point x="191" y="359" type="line"/>
      <point x="494" y="359" type="line"/>
    </contour>
  </outline>
</glyph>
<glyph name="u1082E" format="2">
  <advance width="697"/>
  <unicode hex="1082E"/>
  <note>
u1082E
</note>
  <outline>
    <contour>
      <point x="67" y="338" type="line"/>
      <point x="337" y="69" type="line"/>
      <point x="119" y="69" type="line"/>
      <point x="119" y="0" type="line"/>
      <point x="576" y="0" type="line"/>
      <point x="576" y="69" type="line"/>
      <point x="360" y="69" type="line"/>
      <point x="629" y="339" type="line"/>
      <point x="576" y="391" type="line"/>
      <point x="445" y="262" type="line" smooth="yes"/>
      <point x="424" y="241"/>
      <point x="403" y="212"/>
      <point x="382" y="177" type="curve"/>
      <point x="378" y="177" type="line"/>
      <point x="384" y="239"/>
      <point x="387" y="302"/>
      <point x="387" y="365" type="curve" smooth="yes"/>
      <point x="387" y="714" type="line"/>
      <point x="309" y="714" type="line"/>
      <point x="309" y="365" type="line" smooth="yes"/>
      <point x="309" y="301"/>
      <point x="312" y="238"/>
      <point x="316" y="177" type="curve"/>
      <point x="312" y="177" type="line"/>
      <point x="293" y="213"/>
      <point x="273" y="242"/>
      <point x="252" y="262" type="curve" smooth="yes"/>
      <point x="119" y="391" type="line"/>
    </contour>
  </outline>
</glyph>
<glyph name="u1082F" format="2">
  <advance width="697"/>
  <unicode hex="1082F"/>
  <note>
u1082F
</note>
  <outline>
    <contour>
      <point x="119" y="414" type="line"/>
      <point x="252" y="543" type="line" smooth="yes"/>
      <point x="279" y="569"/>
      <point x="299" y="593"/>
      <point x="312" y="617" type="curve"/>
      <point x="316" y="617" type="line"/>
      <point x="312" y="556"/>
      <point x="309" y="497"/>
      <point x="309" y="440" type="curve" smooth="yes"/>
      <point x="309" y="0" type="line"/>
      <point x="387" y="0" type="line"/>
      <point x="387" y="440" type="line" smooth="yes"/>
      <point x="387" y="485"/>
      <point x="385" y="531"/>
      <point x="381" y="578" type="curve" smooth="yes"/>
      <point x="378" y="617" type="line"/>
      <point x="382" y="617" type="line"/>
      <point x="394" y="598"/>
      <point x="415" y="573"/>
      <point x="445" y="543" type="curve" smooth="yes"/>
      <point x="576" y="414" type="line"/>
      <point x="629" y="466" type="line"/>
      <point x="370" y="724" type="line"/>
      <point x="325" y="724" type="line"/>
      <point x="67" y="467" type="line"/>
    </contour>
  </outline>
</glyph>
<glyph name="u10830" format="2">
  <advance width="619"/>
  <unicode hex="10830"/>
  <note>
u10830
</note>
  <outline>
    <contour>
      <point x="501" y="477" type="line"/>
      <point x="294" y="477" type="line"/>
      <point x="294" y="645" type="line"/>
      <point x="552" y="645" type="line"/>
      <point x="552" y="714" type="line"/>
      <point x="67" y="714" type="line"/>
      <point x="67" y="645" type="line"/>
      <point x="216" y="645" type="line"/>
      <point x="216" y="0" type="line"/>
      <point x="294" y="0" type="line"/>
      <point x="294" y="408" type="line"/>
      <point x="501" y="408" type="line"/>
    </contour>
  </outline>
</glyph>
<glyph name="u10831" format="2">
  <advance width="695"/>
  <unicode hex="10831"/>
  <note>
u10831
</note>
  <outline>
    <contour>
      <point x="305" y="645" type="line"/>
      <point x="594" y="645" type="line"/>
      <point x="594" y="714" type="line"/>
      <point x="79" y="714" type="line"/>
      <point x="79" y="645" type="line"/>
      <point x="226" y="645" type="line"/>
      <point x="133" y="3" type="line"/>
      <point x="211" y="-3" type="line"/>
      <point x="270" y="408" type="line"/>
      <point x="594" y="408" type="line"/>
      <point x="594" y="477" type="line"/>
      <point x="280" y="477" type="line"/>
    </contour>
    <contour>
      <point x="594" y="0" type="line"/>
      <point x="594" y="318" type="line"/>
      <point x="516" y="318" type="line"/>
      <point x="516" y="0" type="line"/>
    </contour>
    <contour>
      <point x="451" y="71" type="line"/>
      <point x="451" y="318" type="line"/>
      <point x="373" y="318" type="line"/>
      <point x="373" y="71" type="line"/>
    </contour>
  </outline>
</glyph>
<glyph name="u10832" format="2">
  <advance width="832"/>
  <unicode hex="10832"/>
  <note>
u10832
</note>
  <outline>
    <contour>
      <point x="359" y="337" type="line"/>
      <point x="359" y="387" type="line"/>
      <point x="125" y="731" type="line"/>
      <point x="61" y="687" type="line"/>
      <point x="282" y="362" type="line"/>
      <point x="56" y="43" type="line"/>
      <point x="115" y="-5" type="line"/>
    </contour>
    <contour>
      <point x="717" y="-5" type="line"/>
      <point x="776" y="43" type="line"/>
      <point x="551" y="362" type="line"/>
      <point x="771" y="687" type="line"/>
      <point x="708" y="736" type="line"/>
      <point x="473" y="387" type="line"/>
      <point x="473" y="337" type="line"/>
    </contour>
    <contour>
      <point x="396" y="262" type="line"/>
      <point x="248" y="41" type="line"/>
      <point x="312" y="-2" type="line"/>
      <point x="420" y="165" type="line"/>
      <point x="531" y="-1" type="line"/>
      <point x="592" y="40" type="line"/>
      <point x="444" y="262" type="line"/>
    </contour>
  </outline>
</glyph>
<glyph name="u10833" format="2">
  <advance width="640"/>
  <unicode hex="10833"/>
  <note>
u10833
</note>
  <outline>
    <contour>
      <point x="561" y="714" type="line"/>
      <point x="79" y="714" type="line"/>
      <point x="79" y="645" type="line"/>
      <point x="278" y="645" type="line"/>
      <point x="278" y="69" type="line"/>
      <point x="79" y="69" type="line"/>
      <point x="79" y="0" type="line"/>
      <point x="561" y="0" type="line"/>
      <point x="561" y="69" type="line"/>
      <point x="356" y="69" type="line"/>
      <point x="356" y="645" type="line"/>
      <point x="561" y="645" type="line"/>
    </contour>
  </outline>
</glyph>
<glyph name="u10834" format="2">
  <advance width="832"/>
  <unicode hex="10834"/>
  <note>
u10834
</note>
  <outline>
    <contour>
      <point x="458" y="498" type="line"/>
      <point x="458" y="714" type="line"/>
      <point x="380" y="714" type="line"/>
      <point x="380" y="498" type="line"/>
    </contour>
    <contour>
      <point x="359" y="337" type="line"/>
      <point x="359" y="387" type="line"/>
      <point x="178" y="656" type="line"/>
      <point x="114" y="612" type="line"/>
      <point x="282" y="362" type="line"/>
      <point x="56" y="43" type="line"/>
      <point x="115" y="-5" type="line"/>
    </contour>
    <contour>
      <point x="717" y="-5" type="line"/>
      <point x="776" y="43" type="line"/>
      <point x="551" y="362" type="line"/>
      <point x="714" y="607" type="line"/>
      <point x="651" y="656" type="line"/>
      <point x="473" y="387" type="line"/>
      <point x="473" y="337" type="line"/>
    </contour>
  </outline>
</glyph>
<glyph name="u10835" format="2">
  <advance width="792"/>
  <unicode hex="10835"/>
  <note>
u10835
</note>
  <outline>
    <contour>
      <point x="377" y="397" type="line" smooth="yes"/>
      <point x="377" y="302"/>
      <point x="371" y="233"/>
      <point x="357" y="190" type="curve" smooth="yes"/>
      <point x="330" y="104"/>
      <point x="276" y="72"/>
      <point x="150" y="72" type="curve" smooth="yes"/>
      <point x="119" y="72" type="line"/>
      <point x="119" y="0" type="line"/>
      <point x="150" y="0" type="line" smooth="yes"/>
      <point x="391" y="0"/>
      <point x="454" y="122"/>
      <point x="454" y="395" type="curve" smooth="yes"/>
      <point x="454" y="464" type="line"/>
      <point x="377" y="464" type="line"/>
    </contour>
    <contour>
      <point x="686" y="300" type="line"/>
      <point x="747" y="353" type="line"/>
      <point x="421" y="724" type="line"/>
      <point x="393" y="724" type="line"/>
      <point x="67" y="353" type="line"/>
      <point x="129" y="300" type="line"/>
      <point x="404" y="623" type="line"/>
    </contour>
  </outline>
</glyph>
<glyph name="u10837" format="2">
  <advance width="735"/>
  <unicode hex="10837"/>
  <note>
u10837
</note>
  <outline>
    <contour>
      <point x="487" y="361" type="curve" smooth="yes"/>
      <point x="487" y="507"/>
      <point x="557" y="621"/>
      <point x="668" y="664" type="curve"/>
      <point x="636" y="725" type="line"/>
      <point x="495" y="674"/>
      <point x="407" y="524"/>
      <point x="407" y="361" type="curve" smooth="yes"/>
      <point x="407" y="203"/>
      <point x="494" y="47"/>
      <point x="636" y="-3" type="curve"/>
      <point x="668" y="58" type="line"/>
      <point x="557" y="102"/>
      <point x="487" y="215"/>
    </contour>
    <contour>
      <point x="249" y="361" type="curve" smooth="yes"/>
      <point x="249" y="217"/>
      <point x="180" y="102"/>
      <point x="67" y="58" type="curve"/>
      <point x="99" y="-3" type="line"/>
      <point x="240" y="47"/>
      <point x="328" y="198"/>
      <point x="328" y="361" type="curve" smooth="yes"/>
      <point x="328" y="522"/>
      <point x="244" y="672"/>
      <point x="99" y="725" type="curve"/>
      <point x="67" y="664" type="line"/>
      <point x="180" y="621"/>
      <point x="249" y="506"/>
    </contour>
  </outline>
</glyph>
<glyph name="u10838" format="2">
  <advance width="666"/>
  <unicode hex="10838"/>
  <note>
u10838
</note>
  <outline>
    <contour>
      <point x="274" y="359" type="line"/>
      <point x="475" y="359" type="line"/>
      <point x="475" y="0" type="line"/>
      <point x="553" y="0" type="line"/>
      <point x="553" y="714" type="line"/>
      <point x="475" y="714" type="line"/>
      <point x="475" y="428" type="line"/>
      <point x="274" y="428" type="line"/>
    </contour>
    <contour>
      <point x="147" y="361" type="curve" smooth="yes"/>
      <point x="147" y="507"/>
      <point x="217" y="621"/>
      <point x="328" y="664" type="curve"/>
      <point x="297" y="725" type="line"/>
      <point x="155" y="674"/>
      <point x="67" y="525"/>
      <point x="67" y="361" type="curve" smooth="yes"/>
      <point x="67" y="202"/>
      <point x="154" y="47"/>
      <point x="297" y="-3" type="curve"/>
      <point x="328" y="58" type="line"/>
      <point x="217" y="102"/>
      <point x="147" y="216"/>
    </contour>
  </outline>
</glyph>
<glyph name="u1083C" format="2">
  <advance width="832"/>
  <unicode hex="1083C"/>
  <note>
u1083C
</note>
  <outline>
    <contour>
      <point x="443" y="679" type="line"/>
      <point x="541" y="565" type="line"/>
      <point x="593" y="612" type="line"/>
      <point x="495" y="725" type="line"/>
    </contour>
    <contour>
      <point x="360" y="605" type="line"/>
      <point x="457" y="491" type="line"/>
      <point x="510" y="538" type="line"/>
      <point x="412" y="651" type="line"/>
    </contour>
    <contour>
      <point x="359" y="337" type="line"/>
      <point x="359" y="387" type="line"/>
      <point x="178" y="656" type="line"/>
      <point x="114" y="612" type="line"/>
      <point x="282" y="362" type="line"/>
      <point x="56" y="43" type="line"/>
      <point x="115" y="-5" type="line"/>
    </contour>
    <contour>
      <point x="717" y="-5" type="line"/>
      <point x="776" y="43" type="line"/>
      <point x="551" y="362" type="line"/>
      <point x="714" y="607" type="line"/>
      <point x="651" y="656" type="line"/>
      <point x="473" y="387" type="line"/>
      <point x="473" y="337" type="line"/>
    </contour>
  </outline>
</glyph>
<glyph name="u1083F" format="2">
  <advance width="617"/>
  <unicode hex="1083F"/>
  <note>
u1083F
</note>
  <outline>
    <contour>
      <point x="67" y="465" type="curve" smooth="yes"/>
      <point x="67" y="416"/>
      <point x="96" y="378"/>
      <point x="154" y="353" type="curve" smooth="yes"/>
      <point x="177" y="343" type="line" smooth="yes"/>
      <point x="212" y="327"/>
      <point x="224" y="312"/>
      <point x="224" y="288" type="curve" smooth="yes"/>
      <point x="224" y="276"/>
      <point x="221" y="264"/>
      <point x="215" y="251" type="curve" smooth="yes"/>
      <point x="110" y="16" type="line"/>
      <point x="183" y="-10" type="line"/>
      <point x="290" y="232" type="line" smooth="yes"/>
      <point x="301" y="256"/>
      <point x="305" y="277"/>
      <point x="305" y="297" type="curve" smooth="yes"/>
      <point x="305" y="346"/>
      <point x="276" y="384"/>
      <point x="218" y="409" type="curve" smooth="yes"/>
      <point x="195" y="419" type="line" smooth="yes"/>
      <point x="160" y="435"/>
      <point x="149" y="450"/>
      <point x="149" y="474" type="curve" smooth="yes"/>
      <point x="149" y="487"/>
      <point x="152" y="500"/>
      <point x="157" y="511" type="curve" smooth="yes"/>
      <point x="243" y="708" type="line"/>
      <point x="170" y="734" type="line"/>
      <point x="83" y="530" type="line" smooth="yes"/>
      <point x="72" y="505"/>
      <point x="67" y="483"/>
    </contour>
    <contour>
      <point x="312" y="465" type="curve" smooth="yes"/>
      <point x="312" y="415"/>
      <point x="341" y="378"/>
      <point x="399" y="353" type="curve" smooth="yes"/>
      <point x="422" y="343" type="line" smooth="yes"/>
      <point x="457" y="327"/>
      <point x="469" y="312"/>
      <point x="469" y="288" type="curve" smooth="yes"/>
      <point x="469" y="276"/>
      <point x="466" y="264"/>
      <point x="460" y="251" type="curve" smooth="yes"/>
      <point x="355" y="16" type="line"/>
      <point x="427" y="-10" type="line"/>
      <point x="534" y="232" type="line" smooth="yes"/>
      <point x="545" y="256"/>
      <point x="550" y="278"/>
      <point x="550" y="297" type="curve" smooth="yes"/>
      <point x="550" y="346"/>
      <point x="521" y="384"/>
      <point x="463" y="409" type="curve" smooth="yes"/>
      <point x="440" y="419" type="line" smooth="yes"/>
      <point x="405" y="435"/>
      <point x="394" y="450"/>
      <point x="394" y="474" type="curve" smooth="yes"/>
      <point x="394" y="488"/>
      <point x="397" y="499"/>
      <point x="402" y="511" type="curve" smooth="yes"/>
      <point x="488" y="708" type="line"/>
      <point x="415" y="734" type="line"/>
      <point x="327" y="530" type="line" smooth="yes"/>
      <point x="317" y="508"/>
      <point x="312" y="486"/>
    </contour>
  </outline>
</glyph>
